<svg xmlns="http://www.w3.org/2000/svg" xmlns:xlink="http://www.w3.org/1999/xlink" width="284" zoomAndPan="magnify" viewBox="0 0 212.87999 129.000003" height="172" preserveAspectRatio="xMidYMid meet" version="1.0"><defs><filter x="0%" y="0%" width="100%" height="100%" id="d3d6297669"><feColorMatrix values="0 0 0 0 1 0 0 0 0 1 0 0 0 0 1 0 0 0 1 0" color-interpolation-filters="sRGB"/></filter><g/><mask id="59ef99ce47"><g filter="url(#d3d6297669)"><rect x="-21.287999" width="255.455988" fill="#000000" y="-12.9" height="154.800004" fill-opacity="0.69"/></g></mask><clipPath id="93dfdaa38c"><path d="M 16 0 L 78.488281 0 L 78.488281 76 L 16 76 Z M 16 0 " clip-rule="nonzero"/></clipPath><clipPath id="f6d9582390"><path d="M 1.089844 43 L 42 43 L 42 92 L 1.089844 92 Z M 1.089844 43 " clip-rule="nonzero"/></clipPath><clipPath id="149b6b0653"><rect x="0" width="79" y="0" height="93"/></clipPath><clipPath id="759934349e"><rect x="0" width="117" y="0" height="77"/></clipPath><clipPath id="b326226ab0"><rect x="0" width="53" y="0" height="31"/></clipPath><clipPath id="e15eecea48"><rect x="0" width="119" y="0" height="18"/></clipPath></defs><g mask="url(#59ef99ce47)"><g transform="matrix(1, 0, 0, 1, 83, 0.000000000000009886)"><g clip-path="url(#149b6b0653)"><g clip-path="url(#93dfdaa38c)"><path fill="#fc84da" d="M 62.761719 35.003906 C 59.960938 35.003906 57.6875 32.730469 57.6875 29.929688 C 57.6875 27.128906 59.960938 24.855469 62.761719 24.855469 C 65.5625 24.855469 67.835938 27.128906 67.835938 29.929688 C 67.835938 32.730469 65.5625 35.003906 62.761719 35.003906 Z M 47.648438 35.003906 C 44.84375 35.003906 42.574219 32.730469 42.574219 29.929688 C 42.574219 27.128906 44.84375 24.855469 47.648438 24.855469 C 50.449219 24.855469 52.722656 27.128906 52.722656 29.929688 C 52.722656 32.730469 50.449219 35.003906 47.648438 35.003906 Z M 32.53125 35.003906 C 29.730469 35.003906 27.460938 32.730469 27.460938 29.929688 C 27.460938 27.128906 29.730469 24.855469 32.53125 24.855469 C 35.335938 24.855469 37.605469 27.128906 37.605469 29.929688 C 37.605469 32.730469 35.335938 35.003906 32.53125 35.003906 Z M 47.648438 0.0351562 C 30.554688 0.0351562 16.695312 13.890625 16.695312 30.984375 C 16.695312 48.078125 30.554688 61.9375 47.648438 61.9375 C 48.238281 61.9375 48.824219 61.917969 49.40625 61.882812 L 66.230469 75.203125 L 67.164062 55.007812 C 74.140625 49.332031 78.597656 40.679688 78.597656 30.984375 C 78.597656 13.890625 64.742188 0.0351562 47.648438 0.0351562 " fill-opacity="1" fill-rule="nonzero"/></g><g clip-path="url(#f6d9582390)"><path fill="#ffb2e9" d="M 30.917969 65.9375 C 29.101562 65.9375 27.632812 64.464844 27.632812 62.652344 C 27.632812 60.835938 29.101562 59.367188 30.917969 59.367188 C 32.730469 59.367188 34.203125 60.835938 34.203125 62.652344 C 34.203125 64.464844 32.730469 65.9375 30.917969 65.9375 Z M 21.132812 65.9375 C 19.320312 65.9375 17.847656 64.464844 17.847656 62.652344 C 17.847656 60.835938 19.320312 59.367188 21.132812 59.367188 C 22.945312 59.367188 24.417969 60.835938 24.417969 62.652344 C 24.417969 64.464844 22.945312 65.9375 21.132812 65.9375 Z M 11.347656 65.9375 C 9.53125 65.9375 8.0625 64.464844 8.0625 62.652344 C 8.0625 60.835938 9.53125 59.367188 11.347656 59.367188 C 13.160156 59.367188 14.632812 60.835938 14.632812 62.652344 C 14.632812 64.464844 13.160156 65.9375 11.347656 65.9375 Z M 21.132812 43.296875 C 10.066406 43.296875 1.09375 52.269531 1.09375 63.335938 C 1.09375 74.402344 10.066406 83.375 21.132812 83.375 C 21.515625 83.375 21.894531 83.359375 22.273438 83.339844 L 33.164062 91.960938 L 33.765625 78.886719 C 38.285156 75.210938 41.171875 69.613281 41.171875 63.335938 C 41.171875 52.269531 32.199219 43.296875 21.132812 43.296875 " fill-opacity="1" fill-rule="nonzero"/></g><path fill="#ffb2e9" d="M 41.171875 61.234375 C 31.378906 59.113281 23.316406 52.359375 19.386719 43.382812 C 19.996094 43.328125 20.617188 43.296875 21.242188 43.296875 C 31.597656 43.296875 40.121094 51.15625 41.171875 61.234375 " fill-opacity="1" fill-rule="nonzero"/></g></g></g><g transform="matrix(1, 0, 0, 1, 40, 42)"><g clip-path="url(#759934349e)"><g fill="#ff66c4" fill-opacity="1"><g transform="translate(0.672092, 56.278664)"><g><path d="M 21.203125 0.734375 C 17.503906 0.734375 14.222656 -0.078125 11.359375 -1.703125 C 8.492188 -3.328125 6.257812 -5.566406 4.65625 -8.421875 C 3.050781 -11.285156 2.25 -14.585938 2.25 -18.328125 C 2.25 -22.054688 3.050781 -25.347656 4.65625 -28.203125 C 6.257812 -31.066406 8.484375 -33.3125 11.328125 -34.9375 C 14.171875 -36.5625 17.441406 -37.375 21.140625 -37.375 C 24.253906 -37.375 27.097656 -36.78125 29.671875 -35.59375 C 32.253906 -34.40625 34.425781 -32.726562 36.1875 -30.5625 C 37.957031 -28.40625 39.191406 -25.859375 39.890625 -22.921875 L 31.296875 -22.921875 C 30.597656 -24.953125 29.359375 -26.550781 27.578125 -27.71875 C 25.804688 -28.882812 23.75 -29.46875 21.40625 -29.46875 C 19.351562 -29.46875 17.515625 -28.992188 15.890625 -28.046875 C 14.265625 -27.109375 13 -25.800781 12.09375 -24.125 C 11.1875 -22.457031 10.734375 -20.523438 10.734375 -18.328125 C 10.734375 -16.117188 11.1875 -14.175781 12.09375 -12.5 C 13 -10.832031 14.253906 -9.523438 15.859375 -8.578125 C 17.460938 -7.640625 19.296875 -7.171875 21.359375 -7.171875 C 23.765625 -7.171875 25.875 -7.789062 27.6875 -9.03125 C 29.5 -10.269531 30.789062 -11.9375 31.5625 -14.03125 L 40.140625 -14.03125 C 39.554688 -11.0625 38.375 -8.46875 36.59375 -6.25 C 34.8125 -4.039062 32.601562 -2.320312 29.96875 -1.09375 C 27.332031 0.125 24.410156 0.734375 21.203125 0.734375 Z M 21.203125 0.734375 "/></g></g></g><g fill="#ff66c4" fill-opacity="1"><g transform="translate(44.7479, 56.278664)"><g><path d="M 3.984375 0 L 3.984375 -27.484375 L 11.9375 -27.484375 L 11.9375 0 Z M 2.828125 -36.375 C 2.828125 -37.84375 3.304688 -39.039062 4.265625 -39.96875 C 5.222656 -40.894531 6.453125 -41.359375 7.953125 -41.359375 C 9.492188 -41.359375 10.734375 -40.894531 11.671875 -39.96875 C 12.617188 -39.039062 13.09375 -37.84375 13.09375 -36.375 C 13.09375 -34.914062 12.617188 -33.722656 11.671875 -32.796875 C 10.734375 -31.867188 9.492188 -31.40625 7.953125 -31.40625 C 6.453125 -31.40625 5.222656 -31.867188 4.265625 -32.796875 C 3.304688 -33.722656 2.828125 -34.914062 2.828125 -36.375 Z M 2.828125 -36.375 "/></g></g></g><g fill="#ff66c4" fill-opacity="1"><g transform="translate(62.493539, 56.278664)"><g><path d="M 17.0625 0.734375 C 14.132812 0.734375 11.535156 0.113281 9.265625 -1.125 C 6.992188 -2.363281 5.222656 -4.070312 3.953125 -6.25 C 2.679688 -8.4375 2.046875 -10.941406 2.046875 -13.765625 C 2.046875 -16.585938 2.679688 -19.082031 3.953125 -21.25 C 5.222656 -23.414062 6.992188 -25.117188 9.265625 -26.359375 C 11.535156 -27.597656 14.132812 -28.21875 17.0625 -28.21875 C 19.613281 -28.21875 21.925781 -27.753906 24 -26.828125 C 26.070312 -25.898438 27.789062 -24.585938 29.15625 -22.890625 C 30.519531 -21.203125 31.410156 -19.222656 31.828125 -16.953125 L 24.1875 -16.953125 C 23.519531 -18.347656 22.578125 -19.4375 21.359375 -20.21875 C 20.140625 -21.007812 18.742188 -21.40625 17.171875 -21.40625 C 15.035156 -21.40625 13.285156 -20.695312 11.921875 -19.28125 C 10.566406 -17.875 9.890625 -16.035156 9.890625 -13.765625 C 9.890625 -11.535156 10.566406 -9.703125 11.921875 -8.265625 C 13.285156 -6.835938 15.035156 -6.125 17.171875 -6.125 C 18.847656 -6.125 20.320312 -6.566406 21.59375 -7.453125 C 22.863281 -8.347656 23.78125 -9.546875 24.34375 -11.046875 L 32.09375 -11.046875 C 31.601562 -8.640625 30.664062 -6.550781 29.28125 -4.78125 C 27.90625 -3.019531 26.171875 -1.660156 24.078125 -0.703125 C 21.984375 0.253906 19.644531 0.734375 17.0625 0.734375 Z M 17.0625 0.734375 "/></g></g></g><g fill="#ff66c4" fill-opacity="1"><g transform="translate(98.350975, 56.278664)"><g><path d="M 3.984375 0 L 3.984375 -27.484375 L 11.9375 -27.484375 L 11.9375 0 Z M 2.828125 -36.375 C 2.828125 -37.84375 3.304688 -39.039062 4.265625 -39.96875 C 5.222656 -40.894531 6.453125 -41.359375 7.953125 -41.359375 C 9.492188 -41.359375 10.734375 -40.894531 11.671875 -39.96875 C 12.617188 -39.039062 13.09375 -37.84375 13.09375 -36.375 C 13.09375 -34.914062 12.617188 -33.722656 11.671875 -32.796875 C 10.734375 -31.867188 9.492188 -31.40625 7.953125 -31.40625 C 6.453125 -31.40625 5.222656 -31.867188 4.265625 -32.796875 C 3.304688 -33.722656 2.828125 -34.914062 2.828125 -36.375 Z M 2.828125 -36.375 "/></g></g></g></g></g><g transform="matrix(1, 0, 0, 1, 45, 28)"><g clip-path="url(#b326226ab0)"><g fill="#ff66c4" fill-opacity="1"><g transform="translate(0.937039, 13.534111)"><g><path d="M 1.046875 0 L 1.046875 -8.6875 L 6.75 -8.6875 L 6.75 -7.03125 L 3 -7.03125 L 3 -5.234375 L 6.421875 -5.234375 L 6.421875 -3.578125 L 3 -3.578125 L 3 -1.671875 L 6.890625 -1.671875 L 6.890625 0 Z M 1.046875 0 "/></g></g></g><g fill="#ff66c4" fill-opacity="1"><g transform="translate(9.024378, 13.534111)"><g><path d="M 0.9375 0 L 0.9375 -6.515625 L 2.34375 -6.515625 L 2.546875 -5.78125 C 2.804688 -6.09375 3.125 -6.320312 3.5 -6.46875 C 3.882812 -6.625 4.289062 -6.703125 4.71875 -6.703125 C 5.570312 -6.703125 6.238281 -6.4375 6.71875 -5.90625 C 7.207031 -5.375 7.453125 -4.65625 7.453125 -3.75 L 7.453125 0 L 5.5625 0 L 5.5625 -3.546875 C 5.5625 -4.023438 5.445312 -4.398438 5.21875 -4.671875 C 4.988281 -4.941406 4.671875 -5.078125 4.265625 -5.078125 C 3.835938 -5.078125 3.488281 -4.925781 3.21875 -4.625 C 2.957031 -4.332031 2.828125 -3.929688 2.828125 -3.421875 L 2.828125 0 Z M 0.9375 0 "/></g></g></g><g fill="#ff66c4" fill-opacity="1"><g transform="translate(17.857082, 13.534111)"><g><path d="M 4.125 2.75 C 3.175781 2.75 2.40625 2.535156 1.8125 2.109375 C 1.226562 1.679688 0.894531 1.085938 0.8125 0.328125 L 2.640625 0.328125 C 2.710938 0.609375 2.875 0.828125 3.125 0.984375 C 3.375 1.148438 3.695312 1.234375 4.09375 1.234375 C 5.132812 1.234375 5.65625 0.703125 5.65625 -0.359375 L 5.65625 -0.8125 C 5.382812 -0.613281 5.078125 -0.457031 4.734375 -0.34375 C 4.390625 -0.226562 4.023438 -0.171875 3.640625 -0.171875 C 3.023438 -0.171875 2.476562 -0.304688 2 -0.578125 C 1.53125 -0.859375 1.160156 -1.242188 0.890625 -1.734375 C 0.617188 -2.234375 0.484375 -2.800781 0.484375 -3.4375 C 0.484375 -4.070312 0.617188 -4.632812 0.890625 -5.125 C 1.160156 -5.613281 1.53125 -6 2 -6.28125 C 2.476562 -6.5625 3.023438 -6.703125 3.640625 -6.703125 C 4.097656 -6.703125 4.523438 -6.625 4.921875 -6.46875 C 5.316406 -6.3125 5.65625 -6.085938 5.9375 -5.796875 L 6.140625 -6.515625 L 7.546875 -6.515625 L 7.546875 -0.359375 C 7.546875 0.285156 7.40625 0.84375 7.125 1.3125 C 6.84375 1.78125 6.445312 2.132812 5.9375 2.375 C 5.425781 2.625 4.820312 2.75 4.125 2.75 Z M 2.34375 -3.4375 C 2.34375 -2.9375 2.5 -2.523438 2.8125 -2.203125 C 3.132812 -1.890625 3.539062 -1.734375 4.03125 -1.734375 C 4.53125 -1.734375 4.9375 -1.890625 5.25 -2.203125 C 5.570312 -2.523438 5.734375 -2.9375 5.734375 -3.4375 C 5.734375 -3.9375 5.570312 -4.34375 5.25 -4.65625 C 4.9375 -4.96875 4.53125 -5.125 4.03125 -5.125 C 3.539062 -5.125 3.132812 -4.96875 2.8125 -4.65625 C 2.5 -4.34375 2.34375 -3.9375 2.34375 -3.4375 Z M 2.34375 -3.4375 "/></g></g></g><g fill="#ff66c4" fill-opacity="1"><g transform="translate(26.913389, 13.534111)"><g><path d="M 0.9375 0 L 0.9375 -9.1875 L 2.828125 -9.1875 L 2.828125 0 Z M 0.9375 0 "/></g></g></g><g fill="#ff66c4" fill-opacity="1"><g transform="translate(31.249051, 13.534111)"><g><path d="M 0.9375 0 L 0.9375 -6.515625 L 2.828125 -6.515625 L 2.828125 0 Z M 0.671875 -8.640625 C 0.671875 -8.984375 0.785156 -9.265625 1.015625 -9.484375 C 1.242188 -9.703125 1.535156 -9.8125 1.890625 -9.8125 C 2.253906 -9.8125 2.546875 -9.703125 2.765625 -9.484375 C 2.992188 -9.265625 3.109375 -8.984375 3.109375 -8.640625 C 3.109375 -8.285156 2.992188 -8 2.765625 -7.78125 C 2.546875 -7.5625 2.253906 -7.453125 1.890625 -7.453125 C 1.535156 -7.453125 1.242188 -7.5625 1.015625 -7.78125 C 0.785156 -8 0.671875 -8.285156 0.671875 -8.640625 Z M 0.671875 -8.640625 "/></g></g></g><g fill="#ff66c4" fill-opacity="1"><g transform="translate(35.584712, 13.534111)"><g><path d="M 3.453125 0.171875 C 2.859375 0.171875 2.335938 0.078125 1.890625 -0.109375 C 1.453125 -0.296875 1.109375 -0.5625 0.859375 -0.90625 C 0.617188 -1.25 0.5 -1.644531 0.5 -2.09375 L 2.34375 -2.09375 C 2.351562 -1.832031 2.457031 -1.625 2.65625 -1.46875 C 2.851562 -1.3125 3.128906 -1.234375 3.484375 -1.234375 C 3.773438 -1.234375 4.003906 -1.285156 4.171875 -1.390625 C 4.335938 -1.503906 4.421875 -1.65625 4.421875 -1.84375 C 4.421875 -2.050781 4.304688 -2.222656 4.078125 -2.359375 C 3.859375 -2.503906 3.5 -2.617188 3 -2.703125 C 2.164062 -2.847656 1.550781 -3.082031 1.15625 -3.40625 C 0.769531 -3.738281 0.578125 -4.175781 0.578125 -4.71875 C 0.578125 -5.351562 0.816406 -5.84375 1.296875 -6.1875 C 1.773438 -6.53125 2.453125 -6.703125 3.328125 -6.703125 C 4.203125 -6.703125 4.882812 -6.515625 5.375 -6.140625 C 5.863281 -5.765625 6.128906 -5.234375 6.171875 -4.546875 L 4.375 -4.546875 C 4.351562 -4.796875 4.25 -4.988281 4.0625 -5.125 C 3.875 -5.257812 3.625 -5.328125 3.3125 -5.328125 C 3.03125 -5.328125 2.804688 -5.269531 2.640625 -5.15625 C 2.484375 -5.050781 2.40625 -4.90625 2.40625 -4.71875 C 2.40625 -4.519531 2.507812 -4.363281 2.71875 -4.25 C 2.9375 -4.144531 3.320312 -4.03125 3.875 -3.90625 C 5.476562 -3.582031 6.28125 -2.894531 6.28125 -1.84375 C 6.28125 -1.21875 6.03125 -0.722656 5.53125 -0.359375 C 5.03125 -0.00390625 4.335938 0.171875 3.453125 0.171875 Z M 3.453125 0.171875 "/></g></g></g><g fill="#ff66c4" fill-opacity="1"><g transform="translate(42.939106, 13.534111)"><g><path d="M 0.9375 0 L 0.9375 -9.1875 L 2.828125 -9.1875 L 2.828125 -6.03125 C 3.078125 -6.25 3.367188 -6.414062 3.703125 -6.53125 C 4.035156 -6.644531 4.382812 -6.703125 4.75 -6.703125 C 5.59375 -6.703125 6.253906 -6.4375 6.734375 -5.90625 C 7.210938 -5.382812 7.453125 -4.671875 7.453125 -3.765625 L 7.453125 0 L 5.5625 0 L 5.5625 -3.578125 C 5.5625 -4.054688 5.445312 -4.425781 5.21875 -4.6875 C 4.988281 -4.945312 4.671875 -5.078125 4.265625 -5.078125 C 3.835938 -5.078125 3.488281 -4.929688 3.21875 -4.640625 C 2.957031 -4.347656 2.828125 -3.941406 2.828125 -3.421875 L 2.828125 0 Z M 0.9375 0 "/></g></g></g><g fill="#ffb2e9" fill-opacity="1"><g transform="translate(0.937039, 25.502661)"><g><path d="M 2.296875 0 L 0.109375 -5.953125 L 1.921875 -5.953125 L 2.625 -3.984375 L 3.203125 -2.3125 L 3.828125 -3.984375 L 4.5625 -5.953125 L 5.953125 -5.953125 L 6.6875 -3.984375 L 7.3125 -2.296875 L 7.890625 -3.984375 L 8.59375 -5.953125 L 10.40625 -5.953125 L 8.21875 0 L 6.609375 0 L 5.265625 -3.625 L 3.90625 0 Z M 2.296875 0 "/></g></g></g><g fill="#ffb2e9" fill-opacity="1"><g transform="translate(11.556169, 25.502661)"><g><path d="M 0.859375 0 L 0.859375 -5.953125 L 2.59375 -5.953125 L 2.59375 0 Z M 0.609375 -7.890625 C 0.609375 -8.203125 0.710938 -8.457031 0.921875 -8.65625 C 1.128906 -8.863281 1.394531 -8.96875 1.71875 -8.96875 C 2.050781 -8.96875 2.316406 -8.863281 2.515625 -8.65625 C 2.722656 -8.457031 2.828125 -8.203125 2.828125 -7.890625 C 2.828125 -7.566406 2.722656 -7.304688 2.515625 -7.109375 C 2.316406 -6.910156 2.050781 -6.8125 1.71875 -6.8125 C 1.394531 -6.8125 1.128906 -6.910156 0.921875 -7.109375 C 0.710938 -7.304688 0.609375 -7.566406 0.609375 -7.890625 Z M 0.609375 -7.890625 "/></g></g></g><g fill="#ffb2e9" fill-opacity="1"><g transform="translate(15.107236, 25.502661)"><g><path d="M 3.734375 0 C 2.972656 0 2.390625 -0.191406 1.984375 -0.578125 C 1.585938 -0.972656 1.390625 -1.53125 1.390625 -2.25 L 1.390625 -4.546875 L 0.234375 -4.546875 L 0.234375 -5.953125 L 0.765625 -5.953125 C 1.085938 -5.953125 1.304688 -6.003906 1.421875 -6.109375 C 1.535156 -6.210938 1.617188 -6.421875 1.671875 -6.734375 L 1.765625 -7.5 L 3.109375 -7.5 L 3.109375 -5.953125 L 4.734375 -5.953125 L 4.734375 -4.546875 L 3.109375 -4.546875 L 3.109375 -2.515625 C 3.109375 -1.835938 3.441406 -1.5 4.109375 -1.5 L 4.828125 -1.5 L 4.828125 0 Z M 3.734375 0 "/></g></g></g><g fill="#ffb2e9" fill-opacity="1"><g transform="translate(20.50757, 25.502661)"><g><path d="M 0.859375 0 L 0.859375 -8.390625 L 2.59375 -8.390625 L 2.59375 -5.5 C 2.8125 -5.707031 3.070312 -5.859375 3.375 -5.953125 C 3.675781 -6.054688 3.992188 -6.109375 4.328125 -6.109375 C 5.097656 -6.109375 5.703125 -5.867188 6.140625 -5.390625 C 6.585938 -4.921875 6.8125 -4.269531 6.8125 -3.4375 L 6.8125 0 L 5.078125 0 L 5.078125 -3.265625 C 5.078125 -3.703125 4.972656 -4.039062 4.765625 -4.28125 C 4.554688 -4.519531 4.269531 -4.640625 3.90625 -4.640625 C 3.507812 -4.640625 3.191406 -4.503906 2.953125 -4.234375 C 2.710938 -3.960938 2.59375 -3.59375 2.59375 -3.125 L 2.59375 0 Z M 0.859375 0 "/></g></g></g></g></g><g transform="matrix(1, 0, 0, 1, 48, 103)"><g clip-path="url(#e15eecea48)"><g fill="#ff66c4" fill-opacity="1"><g transform="translate(0.834132, 12.318683)"><g><path d="M 0.84375 -5.109375 L 0.8125 -7.9375 L 1.703125 -7.9375 L 1.671875 -5.109375 Z M 2.734375 -7.9375 L 3.625 -7.9375 L 3.59375 -5.109375 L 2.765625 -5.109375 Z M 2.734375 -7.9375 "/></g></g></g><g fill="#ff66c4" fill-opacity="1"><g transform="translate(5.365221, 12.318683)"><g><path d="M 3.0625 0 L 3.0625 -6.984375 L 0.390625 -6.984375 L 0.390625 -7.9375 L 6.734375 -7.9375 L 6.734375 -6.984375 L 4.0625 -6.984375 L 4.0625 0 Z M 3.0625 0 "/></g></g></g><g fill="#ff66c4" fill-opacity="1"><g transform="translate(12.603559, 12.318683)"><g><path d="M 3.703125 0.140625 C 3.085938 0.140625 2.546875 0.0078125 2.078125 -0.25 C 1.609375 -0.507812 1.242188 -0.875 0.984375 -1.34375 C 0.722656 -1.8125 0.59375 -2.347656 0.59375 -2.953125 C 0.59375 -3.554688 0.722656 -4.085938 0.984375 -4.546875 C 1.242188 -5.003906 1.609375 -5.363281 2.078125 -5.625 C 2.546875 -5.894531 3.085938 -6.03125 3.703125 -6.03125 C 4.316406 -6.03125 4.859375 -5.894531 5.328125 -5.625 C 5.796875 -5.363281 6.160156 -5.003906 6.421875 -4.546875 C 6.679688 -4.085938 6.8125 -3.554688 6.8125 -2.953125 C 6.8125 -2.347656 6.679688 -1.8125 6.421875 -1.34375 C 6.160156 -0.875 5.796875 -0.507812 5.328125 -0.25 C 4.859375 0.0078125 4.316406 0.140625 3.703125 0.140625 Z M 1.546875 -2.953125 C 1.546875 -2.515625 1.632812 -2.128906 1.8125 -1.796875 C 2 -1.472656 2.253906 -1.21875 2.578125 -1.03125 C 2.898438 -0.851562 3.273438 -0.765625 3.703125 -0.765625 C 4.128906 -0.765625 4.503906 -0.851562 4.828125 -1.03125 C 5.148438 -1.21875 5.40625 -1.472656 5.59375 -1.796875 C 5.78125 -2.128906 5.875 -2.515625 5.875 -2.953125 C 5.875 -3.378906 5.78125 -3.753906 5.59375 -4.078125 C 5.40625 -4.398438 5.148438 -4.65625 4.828125 -4.84375 C 4.503906 -5.03125 4.128906 -5.125 3.703125 -5.125 C 3.273438 -5.125 2.898438 -5.03125 2.578125 -4.84375 C 2.253906 -4.65625 2 -4.398438 1.8125 -4.078125 C 1.632812 -3.753906 1.546875 -3.378906 1.546875 -2.953125 Z M 1.546875 -2.953125 "/></g></g></g><g fill="#ff66c4" fill-opacity="1"><g transform="translate(20.11375, 12.318683)"><g><path d="M 3.6875 2.40625 C 2.9375 2.40625 2.3125 2.222656 1.8125 1.859375 C 1.3125 1.492188 1.007812 1 0.90625 0.375 L 1.875 0.375 C 1.957031 0.726562 2.15625 1.007812 2.46875 1.21875 C 2.789062 1.425781 3.195312 1.53125 3.6875 1.53125 C 4.300781 1.53125 4.773438 1.363281 5.109375 1.03125 C 5.453125 0.695312 5.625 0.226562 5.625 -0.375 L 5.625 -0.921875 C 5.375 -0.648438 5.066406 -0.4375 4.703125 -0.28125 C 4.335938 -0.132812 3.941406 -0.0625 3.515625 -0.0625 C 2.960938 -0.0625 2.460938 -0.191406 2.015625 -0.453125 C 1.578125 -0.710938 1.226562 -1.066406 0.96875 -1.515625 C 0.71875 -1.960938 0.59375 -2.472656 0.59375 -3.046875 C 0.59375 -3.617188 0.71875 -4.128906 0.96875 -4.578125 C 1.226562 -5.023438 1.578125 -5.378906 2.015625 -5.640625 C 2.460938 -5.898438 2.960938 -6.03125 3.515625 -6.03125 C 3.960938 -6.03125 4.375 -5.945312 4.75 -5.78125 C 5.125 -5.613281 5.441406 -5.382812 5.703125 -5.09375 L 5.796875 -5.875 L 6.578125 -5.875 L 6.578125 -0.34375 C 6.578125 0.207031 6.457031 0.691406 6.21875 1.109375 C 5.988281 1.523438 5.65625 1.84375 5.21875 2.0625 C 4.78125 2.289062 4.269531 2.40625 3.6875 2.40625 Z M 1.546875 -3.046875 C 1.546875 -2.648438 1.632812 -2.289062 1.8125 -1.96875 C 1.988281 -1.65625 2.234375 -1.410156 2.546875 -1.234375 C 2.867188 -1.066406 3.226562 -0.984375 3.625 -0.984375 C 4.03125 -0.984375 4.390625 -1.066406 4.703125 -1.234375 C 5.015625 -1.410156 5.257812 -1.65625 5.4375 -1.96875 C 5.613281 -2.289062 5.703125 -2.648438 5.703125 -3.046875 C 5.703125 -3.441406 5.613281 -3.796875 5.4375 -4.109375 C 5.257812 -4.421875 5.015625 -4.664062 4.703125 -4.84375 C 4.390625 -5.019531 4.03125 -5.109375 3.625 -5.109375 C 3.226562 -5.109375 2.867188 -5.019531 2.546875 -4.84375 C 2.234375 -4.664062 1.988281 -4.421875 1.8125 -4.109375 C 1.632812 -3.796875 1.546875 -3.441406 1.546875 -3.046875 Z M 1.546875 -3.046875 "/></g></g></g><g fill="#ff66c4" fill-opacity="1"><g transform="translate(27.850491, 12.318683)"><g><path d="M 3.609375 0.140625 C 3.015625 0.140625 2.488281 0.0078125 2.03125 -0.25 C 1.582031 -0.507812 1.226562 -0.875 0.96875 -1.34375 C 0.71875 -1.8125 0.59375 -2.347656 0.59375 -2.953125 C 0.59375 -3.554688 0.71875 -4.085938 0.96875 -4.546875 C 1.226562 -5.015625 1.585938 -5.378906 2.046875 -5.640625 C 2.503906 -5.898438 3.023438 -6.03125 3.609375 -6.03125 C 4.234375 -6.03125 4.773438 -5.878906 5.234375 -5.578125 C 5.703125 -5.285156 6.054688 -4.878906 6.296875 -4.359375 C 6.546875 -3.847656 6.660156 -3.25 6.640625 -2.5625 L 1.546875 -2.5625 C 1.628906 -2.007812 1.851562 -1.566406 2.21875 -1.234375 C 2.59375 -0.910156 3.054688 -0.75 3.609375 -0.75 C 3.992188 -0.75 4.34375 -0.832031 4.65625 -1 C 4.976562 -1.164062 5.234375 -1.398438 5.421875 -1.703125 L 6.484375 -1.703125 C 6.253906 -1.128906 5.878906 -0.675781 5.359375 -0.34375 C 4.847656 -0.0195312 4.265625 0.140625 3.609375 0.140625 Z M 1.5625 -3.40625 L 5.6875 -3.40625 C 5.59375 -3.9375 5.359375 -4.351562 4.984375 -4.65625 C 4.609375 -4.96875 4.148438 -5.125 3.609375 -5.125 C 3.066406 -5.125 2.609375 -4.96875 2.234375 -4.65625 C 1.867188 -4.34375 1.644531 -3.925781 1.5625 -3.40625 Z M 1.5625 -3.40625 "/></g></g></g><g fill="#ff66c4" fill-opacity="1"><g transform="translate(35.156793, 12.318683)"><g><path d="M 3.59375 0 C 2.9375 0 2.429688 -0.179688 2.078125 -0.546875 C 1.722656 -0.921875 1.546875 -1.445312 1.546875 -2.125 L 1.546875 -5 L 0.3125 -5 L 0.3125 -5.875 L 0.890625 -5.875 C 1.160156 -5.875 1.347656 -5.921875 1.453125 -6.015625 C 1.566406 -6.109375 1.640625 -6.285156 1.671875 -6.546875 L 1.75 -7.34375 L 2.5 -7.34375 L 2.5 -5.875 L 4.390625 -5.875 L 4.390625 -5 L 2.5 -5 L 2.5 -2.15625 C 2.5 -1.332031 2.878906 -0.921875 3.640625 -0.921875 L 4.46875 -0.921875 L 4.46875 0 Z M 3.59375 0 "/></g></g></g><g fill="#ff66c4" fill-opacity="1"><g transform="translate(40.288232, 12.318683)"><g><path d="M 1.046875 0 L 1.046875 -8.390625 L 2 -8.390625 L 2 -5.109375 C 2.257812 -5.421875 2.566406 -5.648438 2.921875 -5.796875 C 3.273438 -5.953125 3.640625 -6.03125 4.015625 -6.03125 C 4.796875 -6.03125 5.40625 -5.785156 5.84375 -5.296875 C 6.28125 -4.804688 6.5 -4.144531 6.5 -3.3125 L 6.5 0 L 5.546875 0 L 5.546875 -3.21875 C 5.546875 -3.800781 5.398438 -4.265625 5.109375 -4.609375 C 4.816406 -4.953125 4.410156 -5.125 3.890625 -5.125 C 3.335938 -5.125 2.882812 -4.929688 2.53125 -4.546875 C 2.175781 -4.160156 2 -3.644531 2 -3 L 2 0 Z M 1.046875 0 "/></g></g></g><g fill="#ff66c4" fill-opacity="1"><g transform="translate(47.832408, 12.318683)"><g><path d="M 3.609375 0.140625 C 3.015625 0.140625 2.488281 0.0078125 2.03125 -0.25 C 1.582031 -0.507812 1.226562 -0.875 0.96875 -1.34375 C 0.71875 -1.8125 0.59375 -2.347656 0.59375 -2.953125 C 0.59375 -3.554688 0.71875 -4.085938 0.96875 -4.546875 C 1.226562 -5.015625 1.585938 -5.378906 2.046875 -5.640625 C 2.503906 -5.898438 3.023438 -6.03125 3.609375 -6.03125 C 4.234375 -6.03125 4.773438 -5.878906 5.234375 -5.578125 C 5.703125 -5.285156 6.054688 -4.878906 6.296875 -4.359375 C 6.546875 -3.847656 6.660156 -3.25 6.640625 -2.5625 L 1.546875 -2.5625 C 1.628906 -2.007812 1.851562 -1.566406 2.21875 -1.234375 C 2.59375 -0.910156 3.054688 -0.75 3.609375 -0.75 C 3.992188 -0.75 4.34375 -0.832031 4.65625 -1 C 4.976562 -1.164062 5.234375 -1.398438 5.421875 -1.703125 L 6.484375 -1.703125 C 6.253906 -1.128906 5.878906 -0.675781 5.359375 -0.34375 C 4.847656 -0.0195312 4.265625 0.140625 3.609375 0.140625 Z M 1.5625 -3.40625 L 5.6875 -3.40625 C 5.59375 -3.9375 5.359375 -4.351562 4.984375 -4.65625 C 4.609375 -4.96875 4.148438 -5.125 3.609375 -5.125 C 3.066406 -5.125 2.609375 -4.96875 2.234375 -4.65625 C 1.867188 -4.34375 1.644531 -3.925781 1.5625 -3.40625 Z M 1.5625 -3.40625 "/></g></g></g><g fill="#ff66c4" fill-opacity="1"><g transform="translate(55.13871, 12.318683)"><g><path d="M 1.046875 0 L 1.046875 -5.875 L 1.828125 -5.875 L 1.953125 -4.859375 C 2.160156 -5.210938 2.421875 -5.46875 2.734375 -5.625 C 3.046875 -5.789062 3.453125 -5.875 3.953125 -5.875 L 4.484375 -5.875 L 4.484375 -5 L 3.90625 -5 C 3.550781 -5 3.226562 -4.925781 2.9375 -4.78125 C 2.65625 -4.632812 2.425781 -4.394531 2.25 -4.0625 C 2.082031 -3.726562 2 -3.285156 2 -2.734375 L 2 0 Z M 1.046875 0 "/></g></g></g><g fill="#ff66c4" fill-opacity="1"><g transform="translate(60.179533, 12.318683)"><g/></g></g><g fill="#ff66c4" fill-opacity="1"><g transform="translate(63.090802, 12.318683)"><g><path d="M 2.296875 0 L 0.1875 -5.875 L 1.203125 -5.875 L 2.140625 -3.21875 L 2.78125 -1.421875 L 3.46875 -3.21875 L 4.46875 -5.875 L 5.34375 -5.875 L 7.0625 -1.421875 L 7.6875 -3.21875 L 8.640625 -5.875 L 9.640625 -5.875 L 7.53125 0 L 6.625 0 L 5.6875 -2.421875 L 4.921875 -4.46875 L 3.21875 0 Z M 2.296875 0 "/></g></g></g><g fill="#ff66c4" fill-opacity="1"><g transform="translate(73.02506, 12.318683)"><g><path d="M 3.609375 0.140625 C 3.015625 0.140625 2.488281 0.0078125 2.03125 -0.25 C 1.582031 -0.507812 1.226562 -0.875 0.96875 -1.34375 C 0.71875 -1.8125 0.59375 -2.347656 0.59375 -2.953125 C 0.59375 -3.554688 0.71875 -4.085938 0.96875 -4.546875 C 1.226562 -5.015625 1.585938 -5.378906 2.046875 -5.640625 C 2.503906 -5.898438 3.023438 -6.03125 3.609375 -6.03125 C 4.234375 -6.03125 4.773438 -5.878906 5.234375 -5.578125 C 5.703125 -5.285156 6.054688 -4.878906 6.296875 -4.359375 C 6.546875 -3.847656 6.660156 -3.25 6.640625 -2.5625 L 1.546875 -2.5625 C 1.628906 -2.007812 1.851562 -1.566406 2.21875 -1.234375 C 2.59375 -0.910156 3.054688 -0.75 3.609375 -0.75 C 3.992188 -0.75 4.34375 -0.832031 4.65625 -1 C 4.976562 -1.164062 5.234375 -1.398438 5.421875 -1.703125 L 6.484375 -1.703125 C 6.253906 -1.128906 5.878906 -0.675781 5.359375 -0.34375 C 4.847656 -0.0195312 4.265625 0.140625 3.609375 0.140625 Z M 1.5625 -3.40625 L 5.6875 -3.40625 C 5.59375 -3.9375 5.359375 -4.351562 4.984375 -4.65625 C 4.609375 -4.96875 4.148438 -5.125 3.609375 -5.125 C 3.066406 -5.125 2.609375 -4.96875 2.234375 -4.65625 C 1.867188 -4.34375 1.644531 -3.925781 1.5625 -3.40625 Z M 1.5625 -3.40625 "/></g></g></g><g fill="#ff66c4" fill-opacity="1"><g transform="translate(80.331361, 12.318683)"><g/></g></g><g fill="#ff66c4" fill-opacity="1"><g transform="translate(83.242631, 12.318683)"><g><path d="M 3.6875 2.40625 C 2.9375 2.40625 2.3125 2.222656 1.8125 1.859375 C 1.3125 1.492188 1.007812 1 0.90625 0.375 L 1.875 0.375 C 1.957031 0.726562 2.15625 1.007812 2.46875 1.21875 C 2.789062 1.425781 3.195312 1.53125 3.6875 1.53125 C 4.300781 1.53125 4.773438 1.363281 5.109375 1.03125 C 5.453125 0.695312 5.625 0.226562 5.625 -0.375 L 5.625 -0.921875 C 5.375 -0.648438 5.066406 -0.4375 4.703125 -0.28125 C 4.335938 -0.132812 3.941406 -0.0625 3.515625 -0.0625 C 2.960938 -0.0625 2.460938 -0.191406 2.015625 -0.453125 C 1.578125 -0.710938 1.226562 -1.066406 0.96875 -1.515625 C 0.71875 -1.960938 0.59375 -2.472656 0.59375 -3.046875 C 0.59375 -3.617188 0.71875 -4.128906 0.96875 -4.578125 C 1.226562 -5.023438 1.578125 -5.378906 2.015625 -5.640625 C 2.460938 -5.898438 2.960938 -6.03125 3.515625 -6.03125 C 3.960938 -6.03125 4.375 -5.945312 4.75 -5.78125 C 5.125 -5.613281 5.441406 -5.382812 5.703125 -5.09375 L 5.796875 -5.875 L 6.578125 -5.875 L 6.578125 -0.34375 C 6.578125 0.207031 6.457031 0.691406 6.21875 1.109375 C 5.988281 1.523438 5.65625 1.84375 5.21875 2.0625 C 4.78125 2.289062 4.269531 2.40625 3.6875 2.40625 Z M 1.546875 -3.046875 C 1.546875 -2.648438 1.632812 -2.289062 1.8125 -1.96875 C 1.988281 -1.65625 2.234375 -1.410156 2.546875 -1.234375 C 2.867188 -1.066406 3.226562 -0.984375 3.625 -0.984375 C 4.03125 -0.984375 4.390625 -1.066406 4.703125 -1.234375 C 5.015625 -1.410156 5.257812 -1.65625 5.4375 -1.96875 C 5.613281 -2.289062 5.703125 -2.648438 5.703125 -3.046875 C 5.703125 -3.441406 5.613281 -3.796875 5.4375 -4.109375 C 5.257812 -4.421875 5.015625 -4.664062 4.703125 -4.84375 C 4.390625 -5.019531 4.03125 -5.109375 3.625 -5.109375 C 3.226562 -5.109375 2.867188 -5.019531 2.546875 -4.84375 C 2.234375 -4.664062 1.988281 -4.421875 1.8125 -4.109375 C 1.632812 -3.796875 1.546875 -3.441406 1.546875 -3.046875 Z M 1.546875 -3.046875 "/></g></g></g><g fill="#ff66c4" fill-opacity="1"><g transform="translate(90.979372, 12.318683)"><g><path d="M 1.046875 0 L 1.046875 -5.875 L 1.828125 -5.875 L 1.953125 -4.859375 C 2.160156 -5.210938 2.421875 -5.46875 2.734375 -5.625 C 3.046875 -5.789062 3.453125 -5.875 3.953125 -5.875 L 4.484375 -5.875 L 4.484375 -5 L 3.90625 -5 C 3.550781 -5 3.226562 -4.925781 2.9375 -4.78125 C 2.65625 -4.632812 2.425781 -4.394531 2.25 -4.0625 C 2.082031 -3.726562 2 -3.285156 2 -2.734375 L 2 0 Z M 1.046875 0 "/></g></g></g><g fill="#ff66c4" fill-opacity="1"><g transform="translate(96.020195, 12.318683)"><g><path d="M 3.703125 0.140625 C 3.085938 0.140625 2.546875 0.0078125 2.078125 -0.25 C 1.609375 -0.507812 1.242188 -0.875 0.984375 -1.34375 C 0.722656 -1.8125 0.59375 -2.347656 0.59375 -2.953125 C 0.59375 -3.554688 0.722656 -4.085938 0.984375 -4.546875 C 1.242188 -5.003906 1.609375 -5.363281 2.078125 -5.625 C 2.546875 -5.894531 3.085938 -6.03125 3.703125 -6.03125 C 4.316406 -6.03125 4.859375 -5.894531 5.328125 -5.625 C 5.796875 -5.363281 6.160156 -5.003906 6.421875 -4.546875 C 6.679688 -4.085938 6.8125 -3.554688 6.8125 -2.953125 C 6.8125 -2.347656 6.679688 -1.8125 6.421875 -1.34375 C 6.160156 -0.875 5.796875 -0.507812 5.328125 -0.25 C 4.859375 0.0078125 4.316406 0.140625 3.703125 0.140625 Z M 1.546875 -2.953125 C 1.546875 -2.515625 1.632812 -2.128906 1.8125 -1.796875 C 2 -1.472656 2.253906 -1.21875 2.578125 -1.03125 C 2.898438 -0.851562 3.273438 -0.765625 3.703125 -0.765625 C 4.128906 -0.765625 4.503906 -0.851562 4.828125 -1.03125 C 5.148438 -1.21875 5.40625 -1.472656 5.59375 -1.796875 C 5.78125 -2.128906 5.875 -2.515625 5.875 -2.953125 C 5.875 -3.378906 5.78125 -3.753906 5.59375 -4.078125 C 5.40625 -4.398438 5.148438 -4.65625 4.828125 -4.84375 C 4.503906 -5.03125 4.128906 -5.125 3.703125 -5.125 C 3.273438 -5.125 2.898438 -5.03125 2.578125 -4.84375 C 2.253906 -4.65625 2 -4.398438 1.8125 -4.078125 C 1.632812 -3.753906 1.546875 -3.378906 1.546875 -2.953125 Z M 1.546875 -2.953125 "/></g></g></g><g fill="#ff66c4" fill-opacity="1"><g transform="translate(103.530385, 12.318683)"><g><path d="M 2.296875 0 L 0.1875 -5.875 L 1.203125 -5.875 L 2.140625 -3.21875 L 2.78125 -1.421875 L 3.46875 -3.21875 L 4.46875 -5.875 L 5.34375 -5.875 L 7.0625 -1.421875 L 7.6875 -3.21875 L 8.640625 -5.875 L 9.640625 -5.875 L 7.53125 0 L 6.625 0 L 5.6875 -2.421875 L 4.921875 -4.46875 L 3.21875 0 Z M 2.296875 0 "/></g></g></g><g fill="#ff66c4" fill-opacity="1"><g transform="translate(113.464643, 12.318683)"><g><path d="M 0.84375 -5.109375 L 0.8125 -7.9375 L 1.703125 -7.9375 L 1.671875 -5.109375 Z M 2.734375 -7.9375 L 3.625 -7.9375 L 3.59375 -5.109375 L 2.765625 -5.109375 Z M 2.734375 -7.9375 "/></g></g></g></g></g></svg>